<?xml version="1.0" encoding="UTF-8" standalone="no"?>
<!-- Created with Inkscape (http://www.inkscape.org/) -->

<svg
   version="1.1"
   id="svg2"
   width="163.84"
   height="163.84"
   viewBox="0 0 163.84 163.84"
   sodipodi:docname="logo.svg"
   inkscape:version="1.2.2 (b0a8486541, 2022-12-01)"
   xmlns:inkscape="http://www.inkscape.org/namespaces/inkscape"
   xmlns:sodipodi="http://sodipodi.sourceforge.net/DTD/sodipodi-0.dtd"
   xmlns="http://www.w3.org/2000/svg"
   xmlns:svg="http://www.w3.org/2000/svg">
  <defs
     id="defs6" />
  <sodipodi:namedview
     id="namedview4"
     pagecolor="#ffffff"
     bordercolor="#000000"
     borderopacity="0.25"
     inkscape:showpageshadow="2"
     inkscape:pageopacity="0.0"
     inkscape:pagecheckerboard="0"
     inkscape:deskcolor="#d1d1d1"
     showgrid="true"
     inkscape:zoom="4.9987794"
     inkscape:cx="49.712136"
     inkscape:cy="82.020023"
     inkscape:window-width="1920"
     inkscape:window-height="999"
     inkscape:window-x="0"
     inkscape:window-y="52"
     inkscape:window-maximized="1"
     inkscape:current-layer="g8">
    <inkscape:grid
       type="xygrid"
       id="grid172" />
  </sodipodi:namedview>
  <g
     inkscape:groupmode="layer"
     inkscape:label="Image"
     id="g8">
    <path
       style="fill:#ff8b02;stroke:none;stroke-width:0.32"
       d="m 75.599736,10.534288 c -12.98624,1.70592 -24.68288,5.459072 -35.2,13.588384 -6.41568,4.959008 -11.90336,11.284128 -15.99629,18.275808 -21.2506599,36.30176 -2.2288,85.45696 39.03629,96.35712 8.20192,2.1664 16.85536,2.81248 25.28,1.79168 9.63904,-1.16832 19.029444,-4.47008 27.200004,-9.73024 35.73408,-23.0048 40.22528,-75.1568 8.64,-103.72416 -6.95488,-6.290304 -15.13728,-10.76432 -24,-13.707744 C 92.870456,10.831472 83.686136,9.4720481 75.599736,10.534288 m -9.92,29.304192 2.56,4.8 -5.76,-4.16 v 4.16 h -1.28 v -9.92 c 1.4992,0 3.40768,-0.29792 4.76512,0.46624 1.9904,1.12032 1.51456,3.74592 -0.28512,4.65376 m 22.72,-5.12 v 2.56 h 2.88 v 0.96 h -2.88 c 0,2.63552 -0.4576,5.25728 2.88,5.44 v 0.96 c -4.56,-0.0029 -4.16,-2.5616 -4.16,-6.4 h -1.92 v -0.96 h 1.92 c 0.0406,-1.24864 0.19168,-1.8928 1.28,-2.56 m -25.40704,1.29344 c -1.65728,1.24416 0.11072,4.7168 2.20128,2.912 1.61632,-1.3952 -0.54432,-4.15552 -2.20128,-2.912 m 19.64704,1.26656 v 1.6 c -0.58272,-0.21184 -3.70176,-1.16448 -3.08928,0.5696 0.35488,1.00544 1.9536,0.91136 2.66752,1.53888 2.07808,1.8256 -0.47392,3.9824 -2.4576,3.84672 -0.76192,-0.05216 -1.51008,-0.31008 -2.24064,-0.5152 l 0.32,-1.28 c 0.58528,0.18528 4.57216,1.00416 3.27936,-0.83648 -0.69568,-0.99072 -2.27232,-0.7888 -2.95008,-1.8496 -1.14432,-1.79104 0.91968,-3.32256 2.54912,-3.30944 0.6368,0.0051 1.29088,0.15616 1.9216,0.23552 m -11.84,0 c 0,1.45824 -0.66432,5.29696 1.032,6.02368 2.65536,1.13792 2.168,-4.83328 2.168,-6.02368 h 1.28 v 7.36 l -1.28,-0.96 h -0.32 c -0.99168,1.49344 -3.136,1.4496 -3.87392,-0.3376 -0.7152,-1.7312 -0.28608,-4.21952 -0.28608,-6.0624 h 1.28 m 23.68,0 1.92,5.44 c 0.8512,-1.91136 1.1552,-5.05408 3.520001,-5.44 -1.06432,3.26528 -2.320641,10.10752 -6.400001,10.24 l 1.88704,-2.57408 -2.52704,-7.66592 h 1.6 m -13.44,12.48 v 1.6 h -1.6 v -1.6 h 1.6 m -24.64,5.12 c 0.69024,-2.12096 0.93568,-4.39424 3.52,-4.48 v 9.92 h -1.28 v -8 h -0.32 l -1.28,4.48 c -1.9568,-0.33888 -2.30592,-2.75936 -2.56,-4.48 h -0.32 v 8 h -1.28 v -9.92 c 2.6224,0.08704 2.61824,2.44576 3.52,4.48 m 32,-4.48 v 2.56 h 2.88 v 0.96 h -2.88 c 0,2.63552 -0.4576,5.25728 2.88,5.44 v 0.96 c -4.56,-0.0029 -4.16,-2.5616 -4.16,-6.4 h -1.92 v -0.96 h 1.92 c 0.0406,-1.24864 0.19168,-1.8928 1.28,-2.56 m -24.32,2.38016 c 4.29152,-0.50656 4.76128,7.23296 0.64,7.71968 -4.32608,0.51072 -4.81184,-7.2272 -0.64,-7.71968 m 11.2,7.53984 h -1.28 c 0,-1.45824 0.66432,-5.29696 -1.032,-6.02368 -2.65536,-1.13792 -2.168,4.83328 -2.168,6.02368 h -1.28 v -7.36 l 1.28,0.96 c 4.5536,-4.19744 4.48,3.7824 4.48,6.4 m 20.8,-7.53984 c 4.291524,-0.50656 4.761284,7.23296 0.64,7.71968 -4.32608,0.51072 -4.81184,-7.2272 -0.64,-7.71968 m 11.520004,1.45984 c -4.21184,-0.51744 -4.16,2.71616 -4.16,6.08 h -1.28 v -7.36 l 1.28,0.96 c 1.4064,-1.07104 3.45632,-1.85216 4.16,0.32 m -26.560004,-1.28 c 0,2.58112 -0.80192,6.02432 2.56,6.4 v 0.96 c -1.19872,-0.0035 -2.7392,0.15008 -3.46272,-1.03296 -1.12864,-1.8464 0.67584,-4.5616 -1.97728,-5.36704 v -0.96 h 2.88 m -17.51104,1.29376 c -2.00384,1.192 -0.8144,6.3664 1.69344,4.72736 1.84032,-1.20256 0.81408,-6.21888 -1.69344,-4.72736 m 32,0 c -2.00384,1.192 -0.8144,6.3664 1.69344,4.72736 1.840321,-1.20256 0.81408,-6.21888 -1.69344,-4.72736 m -16.72896,29.74624 c 4.29888,1.20832 -7.01632,6.71904 -0.64,8.32 -1.15232,-3.66816 1.98016,-3.7872 1.28,0 h 1.92 c -1.12288,-3.6384 1.98208,-3.79712 1.28,0 6.12864,-1.912 -4.42464,-6.04512 -0.96,-8.32 -0.76288,-3.66592 3.63232,-1.82784 5.05152,-0.28992 2.25888,2.44736 1.69888,5.67744 1.02848,8.60992 1.43456,-0.26688 2.45568,-0.02656 3.2,1.28 l -4.16,0.32 v 0.32 c 1.9392,0.21696 4.52032,-0.13504 4.48,2.56 -1.4528,-1.13024 -2.90624,-2.4848 -4.16,-0.32 2.2096,0.008 3.11712,0.62304 3.52,2.879999 l -3.84,-2.239999 2.24,4.8 c -1.39424,-0.29888 -0.79776,-2.569281 -2.24896,-2.613441 -0.90976,-0.0275 -1.78272,1.159041 -2.55104,1.564481 -1.23488,0.65184 -2.47712,0.72896 -3.84,0.72896 -1.36288,0 -2.60512,-0.0771 -3.84,-0.72896 -0.76832,-0.40544 -1.64128,-1.591998 -2.55104,-1.564481 -1.17632,0.0358 -1.24768,1.792001 -1.28896,2.613441 h -0.96 c 0.14688,-1.84448 0.4256,-3.104318 2.24,-3.84 v -0.64 c -2.05216,-0.30336 -2.29792,1.03872 -3.84,1.919999 0.3488,-2.314559 1.2672,-2.871999 3.52,-2.879999 -1.11584,-1.91488 -2.68992,-1.10944 -3.84,0.32 h -0.32 c -0.0403,-2.69504 2.5408,-2.34304 4.48,-2.56 -1.53504,-0.98496 -2.42016,-0.91872 -4.16,-0.64 0.74432,-1.30656 1.76544,-1.54688 3.2,-1.28 -0.93824,-3.33856 -1.11712,-7.11136 1.9248,-9.46592 1.55104,-1.20032 5.10208,-1.78976 3.8352,1.14592 m 0.32,0.64 h -1.92 v -0.32 l 1.28,-1.92 c -1.86368,0.28032 -7.1648,3.42432 -4.60672,5.88192 1.85632,1.78336 4.76128,-2.2144 5.24672,-3.64192 m 2.88,-1.92 1.28,2.24 -1.6,-0.32 c 0.2208,0.84192 0.50464,1.44992 1.11456,2.09984 5.58528,5.94976 5.56256,-5.33952 -0.79456,-4.01984 m -3.52,7.04 v 0.96 h 0.64 v -0.96 h -0.64 m 3.2,0 v 0.96 h 0.64 v -0.96 h -0.64 m -8,0.64 0.64,2.56 1.6,-0.32 c -0.32512,-1.352 -0.84384,-2.01408 -2.24,-2.24 m 11.2,2.24 1.6,0.32 0.64,-2.56 c -1.4192,0.22432 -1.95552,0.84704 -2.24,2.24 m -11.84,-0.32 0.32,0.32 -0.32,-0.32 m 14.4,0 0.32,0.32 -0.32,-0.32 m -9.92,0.77696 c -3.21504,0.46784 -3.94688,3.90976 -1.55744,6.191039 1.59264,1.520641 4.29088,1.619841 6.35744,1.246721 2.46176,-0.4448 5.68832,-4.51968 3.09824,-6.74272 -1.67424,-1.43744 -5.87712,-0.98912 -7.89824,-0.69504 z"
       id="path170" />
  </g>
</svg>
