<?xml version="1.0" encoding="UTF-8" standalone="no"?>
<!-- Created with Inkscape (http://www.inkscape.org/) -->

<svg
   version="1.1"
   id="svg2"
   width="163.84"
   height="163.84"
   viewBox="0 0 163.84 163.84"
   sodipodi:docname="Untitled.svg"
   inkscape:version="1.2.2 (b0a8486541, 2022-12-01)"
   xmlns:inkscape="http://www.inkscape.org/namespaces/inkscape"
   xmlns:sodipodi="http://sodipodi.sourceforge.net/DTD/sodipodi-0.dtd"
   xmlns="http://www.w3.org/2000/svg"
   xmlns:svg="http://www.w3.org/2000/svg">
  <defs
     id="defs6" />
  <sodipodi:namedview
     id="namedview4"
     pagecolor="#ffffff"
     bordercolor="#000000"
     borderopacity="0.25"
     inkscape:showpageshadow="2"
     inkscape:pageopacity="0.0"
     inkscape:pagecheckerboard="0"
     inkscape:deskcolor="#d1d1d1"
     showgrid="true"
     inkscape:zoom="4.8431887"
     inkscape:cx="78.976894"
     inkscape:cy="81.248125"
     inkscape:window-width="1920"
     inkscape:window-height="1004"
     inkscape:window-x="0"
     inkscape:window-y="52"
     inkscape:window-maximized="1"
     inkscape:current-layer="g8">
    <inkscape:grid
       type="xygrid"
       id="grid172" />
  </sodipodi:namedview>
  <g
     inkscape:groupmode="layer"
     inkscape:label="Image"
     id="g8">
    <path
       style="fill:#ff8b02;stroke:none;stroke-width:0.32"
       d="m 77.574568,15.562777 c -12.98624,1.70592 -24.68288,5.459072 -35.2,13.588384 -6.41568,4.959008 -11.903361,11.284128 -15.996289,18.275808 -21.2506561,36.30176 -2.2288,85.456961 39.036289,96.357121 8.20192,2.1664 16.85536,2.81248 25.28,1.79168 9.639042,-1.16832 19.029442,-4.47008 27.200002,-9.73024 35.73408,-23.0048 40.22528,-75.156801 8.64,-103.724161 -6.95488,-6.290304 -15.13728,-10.76432 -24,-13.707744 -7.689282,-2.553664 -16.873602,-3.913088 -24.960002,-2.850848 m -9.92,29.304192 2.56,4.8 -5.76,-4.16 v 4.16 h -1.28 v -9.92 c 1.4992,0 3.40768,-0.29792 4.76512,0.46624 1.9904,1.12032 1.51456,3.74592 -0.28512,4.65376 m 22.72,-5.12 v 2.56 h 2.88 v 0.96 h -2.88 c 0,2.63552 -0.4576,5.25728 2.88,5.44 v 0.96 c -4.56,-0.0029 -4.16,-2.5616 -4.16,-6.4 h -1.92 v -0.96 h 1.92 c 0.0406,-1.24864 0.19168,-1.8928 1.28,-2.56 m -25.40704,1.29344 c -1.65728,1.24416 0.11072,4.7168 2.20128,2.912 1.61632,-1.3952 -0.54432,-4.15552 -2.20128,-2.912 m 19.64704,1.26656 v 1.6 c -0.58272,-0.21184 -3.70176,-1.16448 -3.08928,0.5696 0.35488,1.00544 1.9536,0.91136 2.66752,1.53888 2.07808,1.8256 -0.47392,3.9824 -2.4576,3.84672 -0.76192,-0.05216 -1.51008,-0.31008 -2.24064,-0.5152 l 0.32,-1.28 c 0.58528,0.18528 4.57216,1.00416 3.27936,-0.83648 -0.69568,-0.99072 -2.27232,-0.7888 -2.95008,-1.8496 -1.14432,-1.79104 0.91968,-3.32256 2.54912,-3.30944 0.6368,0.0051 1.29088,0.15616 1.9216,0.23552 m -11.84,0 c 0,1.45824 -0.66432,5.29696 1.032,6.02368 2.65536,1.13792 2.168,-4.83328 2.168,-6.02368 h 1.28 v 7.36 l -1.28,-0.96 h -0.32 c -0.99168,1.49344 -3.136,1.4496 -3.87392,-0.3376 -0.7152,-1.7312 -0.28608,-4.21952 -0.28608,-6.0624 h 1.28 m 23.68,0 1.92,5.44 c 0.8512,-1.91136 1.155202,-5.05408 3.520002,-5.44 -1.06432,3.26528 -2.32064,10.10752 -6.400002,10.24 l 1.88704,-2.57408 -2.52704,-7.66592 h 1.6 m -13.44,12.48 v 1.6 h -1.6 v -1.6 h 1.6 m -24.64,5.12 c 0.69024,-2.12096 0.93568,-4.39424 3.52,-4.48 v 9.92 h -1.28 v -8 h -0.32 l -1.28,4.48 c -1.9568,-0.33888 -2.30592,-2.75936 -2.56,-4.48 h -0.32 v 8 h -1.28 v -9.92 c 2.6224,0.08704 2.61824,2.44576 3.52,4.48 m 32,-4.48 v 2.56 h 2.88 v 0.96 h -2.88 c 0,2.63552 -0.4576,5.25728 2.88,5.44 v 0.96 c -4.56,-0.0029 -4.16,-2.5616 -4.16,-6.4 h -1.92 v -0.96 h 1.92 c 0.0406,-1.24864 0.19168,-1.8928 1.28,-2.56 m -24.32,2.38016 c 4.29152,-0.50656 4.76128,7.23296 0.64,7.71968 -4.32608,0.51072 -4.81184,-7.2272 -0.64,-7.71968 m 11.2,7.53984 h -1.28 c 0,-1.45824 0.66432,-5.29696 -1.032,-6.02368 -2.65536,-1.13792 -2.168,4.83328 -2.168,6.02368 h -1.28 v -7.36 l 1.28,0.96 c 4.5536,-4.19744 4.48,3.7824 4.48,6.4 m 20.8,-7.53984 c 4.291522,-0.50656 4.761282,7.23296 0.64,7.71968 -4.32608,0.51072 -4.81184,-7.2272 -0.64,-7.71968 m 11.520002,1.45984 c -4.21184,-0.51744 -4.16,2.71616 -4.16,6.08 h -1.28 v -7.36 l 1.28,0.96 c 1.4064,-1.07104 3.45632,-1.85216 4.16,0.32 m -26.560002,-1.28 c 0,2.58112 -0.80192,6.02432 2.56,6.4 v 0.96 c -1.19872,-0.0035 -2.7392,0.15008 -3.46272,-1.03296 -1.12864,-1.8464 0.67584,-4.5616 -1.97728,-5.36704 v -0.96 h 2.88 m -17.51104,1.29376 c -2.00384,1.192 -0.8144,6.3664 1.69344,4.72736 1.84032,-1.20256 0.81408,-6.21888 -1.69344,-4.72736 m 32,0 c -2.00384,1.192 -0.8144,6.3664 1.69344,4.72736 1.840322,-1.20256 0.814082,-6.21888 -1.69344,-4.72736 m -18.96896,31.66624 c 5.0336,1.52928 -3.47104,6.59904 -4.13248,8.033282 -0.8784,1.904319 1.58688,3.686079 3.17248,3.806719 -1.68704,-5.321921 3.45664,-4.957441 1.6,0 h 2.88 c -0.15648,-1.06432 -0.79776,-2.44832 -0.24992,-3.472639 0.67776,-1.267522 2.64544,-1.200962 2.96128,0.29152 0.21216,1.002879 -0.32512,2.186239 -0.47136,3.181119 6.98336,-1.10336 -0.6272,-6.353921 -1.98272,-8.320321 -0.98752,-1.43232 -1.14112,-2.96 0.70272,-3.51968 -2.0224,-4.20896 3.14048,-3.4128 5.44,-1.92992 4.91168,3.16704 4.688,9.56832 2.88,14.409921 2.0208,-1.22208 3.2608,-0.58496 5.12,0.64 v 0.64 l -6.08,0.64 0.32,1.28 c 1.0848,-0.40704 2.66464,-1.03488 3.8352,-0.71232 1.5936,0.43904 3.1456,2.57824 1.9248,3.91232 -1.3808,-1.8112 -4.65824,-4.13088 -5.76,-0.64 3.3632,0.0278 4.65728,1.18432 5.44,4.48 -2.07392,-0.3568 -3.88224,-5.50272 -6.08,-1.92 3.1584,1.03936 2.97536,2.82816 3.52,5.76 h -1.28 c -0.168,-1.32128 -0.21312,-3.75168 -1.93408,-4.01088 -1.4672,-0.22112 -2.90272,1.75936 -4.14592,2.3664 -2.1488,1.04928 -4.69408,1.14016 -7.04,0.97568 -1.65536,-0.11584 -3.38976,-0.52352 -4.7952,-1.43008 -0.91168,-0.58816 -1.98816,-2.17568 -3.192,-1.9936 -2.11808,0.32 -1.0048,3.42848 -2.8928,4.09248 3.2e-4,-2.99104 0.11744,-4.7456 3.2,-5.76 l -0.32,-1.28 c -2.66656,0.008 -3.52096,0.73344 -4.48,3.2 l -1.28,-0.32 c 1.05632,-3.1024 2.12384,-4.13248 5.44,-4.16 -1.33504,-4.22944 -4.70624,0.29728 -6.72,0 1.60416,-3.14208 3.49664,-3.76928 6.72,-2.56 l 0.32,-1.28 c -2.56736,-0.9696 -3.12416,-0.92096 -5.76,-0.32 l -0.32,-0.96 c 1.82368,-1.19136 3.14144,-1.8256 5.12,-0.64 -1.75232,-4.699521 -2.00544,-10.925441 2.56032,-14.195841 2.22944,-1.59712 7.57344,-2.61824 5.75968,1.71584 m 0.32,0.96 -2.24,0.64 1.6,-3.52 c -3.41344,-0.664 -10.35296,4.32512 -7.37856,8.18112 2.33344,3.024641 7.60416,-3.15904 8.01856,-5.30112 m 4.48,-2.88 1.92,2.24 -0.32,1.28 -2.24,-0.64 c 0.256,1.4128 0.87264,2.47136 1.93376,3.46112 0.58048,0.54112 1.23584,1.00928 1.90624,1.43136 1.95968,1.23456 5.09536,1.61184 4.63744,-1.69248 -0.47936,-3.45984 -4.2464,-6.98496 -7.83744,-6.08 m -5.44,10.240002 0.32,1.599999 h 0.32 l 0.32,-1.599999 h -0.96 m 4.8,0 0.32,1.599999 h 0.32 l 0.32,-1.599999 h -0.96 m -12.16,1.279999 1.28,3.52 2.56,-0.96 c -0.80384,-1.83776 -1.70592,-3.170559 -3.84,-2.56 m 16.64,2.56 c 2.59584,1.02752 3.4016,-0.2944 3.52,-2.88 -1.98848,0.0659 -2.75424,1.12928 -3.52,2.88 m -11.84,1.1008 c -4.21216,0.68512 -4.02112,5.99552 -1.74976,8.80544 2.19872,2.71968 6.536,3.0048 9.74976,2.42496 3.5504,-0.64032 9.34976,-7.152 5.03072,-10.45792 -2.5936,-1.98528 -9.95488,-1.27296 -13.03072,-0.77248 z"
       id="path170" />
  </g>
</svg>
